<svg height="512pt" viewBox="0 -68 512.002 512" width="512pt" xmlns="http://www.w3.org/2000/svg"><path d="m464.613281 272.539062c-1.371093-1.367187-3.261719-2.214843-5.355469-2.214843h-406.515624c-4.183594 0-7.574219 3.390625-7.574219 7.570312v90.339844c0 4.179687 3.390625 7.570313 7.574219 7.570313h187.929687c4.179687 0 7.570313-3.390626 7.570313-7.570313 0-4.078125-3.21875-7.390625-7.253907-7.558594v-30.316406h30.023438v30.300781h-1.109375c-4.179688 0-7.574219 3.390625-7.574219 7.574219 0 4.179687 3.394531 7.570313 7.574219 7.570313h189.359375c4.179687 0 7.570312-3.390626 7.570312-7.570313v-90.339844c0-2.089843-.847656-3.984375-2.21875-5.355469zm-103.265625 12.929688v29.746094h-30.023437v-29.746094zm15.148438 0h30.023437v29.746094h-30.023437zm45.167968 0h30.019532v29.746094h-30.019532zm-105.484374 29.746094h-30.023438v-29.746094h30.023438zm-90.335938 0h-30.023438v-29.746094h30.023438zm-45.167969 0h-30.023437v-29.746094h30.023437zm-45.167969 0h-30.023437v-29.746094h30.023437zm-45.171874-29.746094v29.746094h-30.019532v-29.746094zm-30.019532 44.890625h30.023438v30.300781h-30.023438zm45.167969 0h30.023437v30.300781h-30.023437zm45.167969 0h30.023437v30.300781h-30.023437zm75.191406 30.300781h-30.023438v-30.300781h30.023438zm15.144531-45.445312v-29.746094h30.023438v29.746094zm45.167969 15.144531h30.023438v30.300781h-30.023438zm45.167969 0h30.023437v30.300781h-30.023437zm45.171875 0h30.023437v30.300781h-30.023437zm45.167968 30.300781v-30.300781h30.019532v30.300781zm0 0"/><path d="m504.425781 0h-45.167969c-4.183593 0-7.574218 3.390625-7.574218 7.574219v36.90625h-127.929688c-4.183594 0-7.574218 3.390625-7.574218 7.574219v37.59375h-210.699219v-37.59375c0-4.183594-3.390625-7.574219-7.574219-7.574219h-37.589844v-36.90625c0-4.183594-3.390625-7.574219-7.574218-7.574219h-45.167969c-4.183594 0-7.574219 3.390625-7.574219 7.574219v225.152343c0 4.183594 3.390625 7.574219 7.574219 7.574219h496.855469c4.179687 0 7.570312-3.390625 7.570312-7.574219v-97.261718c0-4.183594-3.390625-7.574219-7.570312-7.574219-3.964844 0-7.214844 3.046875-7.542969 6.929687h-30.054688v-30.023437h30.023438v1.488281c0 4.183594 3.390625 7.574219 7.574219 7.574219 4.179687 0 7.574218-3.390625 7.574218-7.574219v-98.710937c-.003906-4.183594-3.394531-7.574219-7.578125-7.574219zm-7.570312 15.148438v29.332031h-30.023438v-29.332031zm-45.171875 74.5h-30.019532v-30.023438h30.019532zm-45.167969 0h-30.023437v-30.023438h30.023437zm-75.191406 105.484374h30.023437v30.019532h-30.023437zm-286.15625-105.484374h-30.023438v-30.023438h30.023438zm0 45.167968h-30.023438v-30.023437h30.023438zm15.148437-30.023437h30.023438v30.023437h-30.023438zm-45.171875 45.171875h30.023438v30.019531h-30.023438zm45.171875 0h30.023438v30.019531h-30.023438zm45.167969 0h30.019531v30.019531h-30.019531zm45.167969 0h30.023437v30.019531h-30.023437zm45.167968 0h30.023438v30.019531h-30.023438zm45.167969 0h30.023438v30.019531h-30.023438zm45.167969 0h30.023438v30.019531h-30.023438zm45.167969 0h30.023437v30.019531h-30.023437zm30.023437-45.171875v30.023437h-30.023437v-30.023437zm15.148438 90.339843h30.023437v30.019532h-30.023437zm120.359375 30.019532h-30.023438v-30.019532h30.023438zm-45.171875 0h-30.019532v-30.019532h30.019532zm-30.019532-45.167969v-30.019531h30.019532v30.019531zm-15.148437 0h-30.023437v-30.019531h30.023437zm-30.019531-45.167969v-30.023437h30.023437v30.023437zm-15.148438-75.191406v30.023438h-30.023437v-30.023438zm-45.167968 75.191406h-30.023438v-30.023437h30.023438zm-45.167969 0h-30.023438v-30.023437h30.023438zm-45.167969 0h-30.023438v-30.023437h30.023438zm-45.167969 0h-30.023437v-30.023437h30.023437zm-45.171875-30.023437v30.023437h-30.019531v-30.023437zm-45.167968-15.144531h-30.019532v-30.023438h30.023438v30.023438zm-45.167969-74.5v29.332031h-30.023438v-29.332031zm-30.023438 179.984374h30.023438v30.019532h-30.023438zm45.171875 0h30.023438v30.019532h-30.023438zm45.167969 0h30.019531v30.019532h-30.019531zm45.167969 0h30.023437v30.019532h-30.023437zm45.167968 0h30.023438v30.019532h-30.023438zm45.167969 0h30.023438v30.019532h-30.023438zm45.167969 0h30.023438v30.019532h-30.023438zm210.699219-45.167968v30.019531h-30.023438v-30.019531zm-45.171875-15.148438h-30.019532v-30.023437h30.019532zm15.148437-45.167968v-30.023438h30.023438v30.023438zm0 0"/></svg>